<?xml version="1.0" encoding="UTF-8" standalone="no"?>
<!-- Created with Inkscape (http://www.inkscape.org/) -->

<svg
   xmlns:dc="http://purl.org/dc/elements/1.1/"
   xmlns:cc="http://creativecommons.org/ns#"
   xmlns:rdf="http://www.w3.org/1999/02/22-rdf-syntax-ns#"
   xmlns:svg="http://www.w3.org/2000/svg"
   xmlns="http://www.w3.org/2000/svg"
   xmlns:xlink="http://www.w3.org/1999/xlink"
   xmlns:sodipodi="http://sodipodi.sourceforge.net/DTD/sodipodi-0.dtd"
   xmlns:inkscape="http://www.inkscape.org/namespaces/inkscape"
   width="1024"
   height="1024"
   viewBox="0 0 270.93333 270.93333"
   version="1.1"
   id="svg8"
   inkscape:version="0.92.1 r15371"
   sodipodi:docname="logo.svg"
   inkscape:export-filename="/home/octy/Documents/GitHub/AuralScratch/static/img/logo.png"
   inkscape:export-xdpi="96"
   inkscape:export-ydpi="96">
  <defs
     id="defs2">
    <linearGradient
       inkscape:collect="always"
       id="linearGradient4596">
      <stop
         style="stop-color:#fbfff1;stop-opacity:1"
         offset="0"
         id="stop4592" />
      <stop
         style="stop-color:#b4c5e4;stop-opacity:1"
         offset="1"
         id="stop4594" />
    </linearGradient>
    <linearGradient
       inkscape:collect="always"
       id="linearGradient4584">
      <stop
         style="stop-color:#1d389f;stop-opacity:1"
         offset="0"
         id="stop4580" />
      <stop
         style="stop-color:#61c2fd;stop-opacity:1"
         offset="1"
         id="stop4582" />
    </linearGradient>
    <radialGradient
       inkscape:collect="always"
       xlink:href="#linearGradient4596"
       id="radialGradient4600"
       cx="135.46666"
       cy="161.53348"
       fx="135.46666"
       fy="161.53348"
       r="135.46666"
       gradientUnits="userSpaceOnUse"
       gradientTransform="matrix(1.2517235,0.00915331,-0.00838639,1.1468462,-32.74546,-24.960549)" />
    <linearGradient
       gradientTransform="translate(-4e-6,-21.166672)"
       inkscape:collect="always"
       xlink:href="#linearGradient4584"
       id="linearGradient4588-5"
       x1="35.550076"
       y1="174.00652"
       x2="235.38327"
       y2="174.00652"
       gradientUnits="userSpaceOnUse" />
  </defs>
  <sodipodi:namedview
     id="base"
     pagecolor="#ffffff"
     bordercolor="#666666"
     borderopacity="1.0"
     inkscape:pageopacity="0.0"
     inkscape:pageshadow="2"
     inkscape:zoom="0.59247814"
     inkscape:cx="175.42856"
     inkscape:cy="530.72824"
     inkscape:document-units="mm"
     inkscape:current-layer="layer1"
     showgrid="false"
     units="px"
     inkscape:pagecheckerboard="true"
     inkscape:window-width="1920"
     inkscape:window-height="1027"
     inkscape:window-x="0"
     inkscape:window-y="0"
     inkscape:window-maximized="1"
     inkscape:object-paths="true"
     inkscape:snap-intersection-paths="false"
     inkscape:snap-smooth-nodes="true"
     inkscape:snap-page="true"
     inkscape:snap-nodes="true"
     inkscape:object-nodes="true"
     inkscape:snap-global="false" />
  <metadata
     id="metadata5">
    <rdf:RDF>
      <cc:Work
         rdf:about="">
        <dc:format>image/svg+xml</dc:format>
        <dc:type
           rdf:resource="http://purl.org/dc/dcmitype/StillImage" />
        <dc:title></dc:title>
      </cc:Work>
    </rdf:RDF>
  </metadata>
  <g
     inkscape:label="Layer 1"
     inkscape:groupmode="layer"
     id="layer1"
     transform="translate(0,-26.066815)">
    <circle
       style="fill:url(#radialGradient4600);fill-opacity:1;fill-rule:nonzero;stroke:none;stroke-width:2.64583325;stroke-miterlimit:4;stroke-dasharray:none;stroke-opacity:1"
       id="path4590"
       cx="135.46666"
       cy="161.53348"
       r="135.46666" />
    <g
       id="g5034">
      <g
         transform="matrix(1.5580886,0,0,1.5580886,-327.96292,-100.21398)"
         id="g5015">
        <path
           style="fill:#00001a;fill-opacity:1;fill-rule:nonzero;stroke:#323232;stroke-width:3;stroke-miterlimit:4;stroke-dasharray:none;stroke-opacity:1;paint-order:normal"
           d="m 1220.9238,256.21473 v 359.96496 c -24.764,-49.86582 -75.6069,-81.43038 -131.2832,-81.50391 -81.0736,1.9e-4 -146.79667,65.72329 -146.79685,146.79688 1.8e-4,81.07359 65.72325,146.79668 146.79685,146.79687 79.6465,-0.0454 144.7273,-63.59399 146.6699,-143.2168 v -428.838 z m -131.2832,372.74621 c 29.0019,-4.9e-4 52.5131,23.50978 52.5137,52.51172 5e-4,29.00271 -23.511,52.51416 -52.5137,52.51367 -29.0019,-6.2e-4 -52.5122,-23.51175 -52.5117,-52.51367 6e-4,-29.00116 23.5105,-52.5111 52.5117,-52.51172 z"
           transform="matrix(0.26458333,0,0,0.26458333,0,26.066815)"
           id="path4905"
           inkscape:connector-curvature="0"
           sodipodi:nodetypes="ccccccccccccc" />
        <path
           style="fill:#00001a;fill-opacity:1;fill-rule:nonzero;stroke:#323232;stroke-width:0.79374999;stroke-miterlimit:4;stroke-dasharray:none;stroke-opacity:1;paint-order:normal"
           d="m 288.30049,176.74495 a 29.627957,29.627957 0 0 0 -29.62765,29.62817 29.627957,29.627957 0 0 0 29.62765,29.62816 29.627957,29.627957 0 0 0 29.62817,-29.62816 29.627957,29.627957 0 0 0 -29.62817,-29.62817 z m 0,15.73444 a 13.894017,13.894017 0 0 1 13.89425,13.89373 13.894017,13.894017 0 0 1 -13.89425,13.89424 13.894017,13.894017 0 0 1 -13.89372,-13.89424 13.894017,13.894017 0 0 1 13.89372,-13.89373 z"
           id="path4907-9-3"
           inkscape:connector-curvature="0" />
        <path
           style="fill:#00001a;fill-opacity:1;fill-rule:nonzero;stroke:#323232;stroke-width:0.79374999;stroke-miterlimit:4;stroke-dasharray:none;stroke-opacity:1;paint-order:normal"
           d="m 288.301,185.26458 a 21.108604,21.108604 0 0 0 -21.10878,21.10828 21.108604,21.108604 0 0 0 21.10878,21.10879 21.108604,21.108604 0 0 0 21.10827,-21.10879 21.108604,21.108604 0 0 0 -21.10827,-21.10828 z m 0,7.21455 A 13.894017,13.894017 0 0 1 302.19475,206.37286 13.894017,13.894017 0 0 1 288.301,220.2671 13.894017,13.894017 0 0 1 274.40678,206.37286 13.894017,13.894017 0 0 1 288.301,192.47913 Z"
           id="path4907-9"
           inkscape:connector-curvature="0" />
        <g
           id="g4998"
           transform="translate(-2.5261849,5.9996892)">
          <path
             style="fill:#090c9b;fill-opacity:1;stroke:#3d52d5;stroke-width:1.48166668;stroke-linecap:butt;stroke-linejoin:round;stroke-miterlimit:4;stroke-dasharray:none;stroke-opacity:1"
             d="m 325.56975,84.776789 c 12.47494,7.251363 22.02109,20.254071 22.02109,35.041911 0,14.78784 -21.41856,27.95413 -32.24579,33.18911 -15.46714,10.04793 -14.09191,19.18269 -8.70663,33.18588 -18.20398,-11.93783 -7.11708,-34.11256 8.86833,-41.37848 11.33145,-4.67171 20.98143,-13.27738 21.07752,-24.99651 0.0961,-11.71913 -8.26898,-16.06278 -11.01452,-19.32453 z"
             id="path4913"
             inkscape:connector-curvature="0"
             sodipodi:nodetypes="cscccscc" />
        </g>
        <ellipse
           ry="3.6791852"
           rx="3.6480057"
           cy="206.37311"
           cx="288.30075"
           id="path5017"
           style="fill:#000000;fill-opacity:1;fill-rule:nonzero;stroke:none;stroke-width:0.58520091;stroke-linejoin:round;stroke-miterlimit:4;stroke-dasharray:none;stroke-opacity:1;paint-order:normal" />
      </g>
    </g>
  </g>
</svg>
